<?xml version="1.0" encoding="UTF-8" standalone="no"?>
<!-- Created with Inkscape (http://www.inkscape.org/) -->

<svg
   xmlns:dc="http://purl.org/dc/elements/1.1/"
   xmlns:cc="http://creativecommons.org/ns#"
   xmlns:rdf="http://www.w3.org/1999/02/22-rdf-syntax-ns#"
   xmlns:svg="http://www.w3.org/2000/svg"
   xmlns="http://www.w3.org/2000/svg"
   xmlns:sodipodi="http://sodipodi.sourceforge.net/DTD/sodipodi-0.dtd"
   xmlns:inkscape="http://www.inkscape.org/namespaces/inkscape"
   id="svg2"
   version="1.1"
   inkscape:version="0.48.2 r9819"
   width="76.158752"
   height="144.26375"
   xml:space="preserve"
   sodipodi:docname="bl-logo.svg"><metadata
     id="metadata8"><rdf:RDF><cc:Work
         rdf:about=""><dc:format>image/svg+xml</dc:format><dc:type
           rdf:resource="http://purl.org/dc/dcmitype/StillImage" /><dc:title /></cc:Work></rdf:RDF></metadata><defs
     id="defs6"><clipPath
       clipPathUnits="userSpaceOnUse"
       id="clipPath18"><path
         d="m -12.838,854.895 628.797,0 0,-879.327 -628.797,0 0,879.327 z"
         clip-rule="evenodd"
         id="path20"
         inkscape:connector-curvature="0" /></clipPath><clipPath
       clipPathUnits="userSpaceOnUse"
       id="clipPath24"><path
         d="M 0,841 595,841 595,0 0,0 0,841 z"
         id="path26"
         inkscape:connector-curvature="0" /></clipPath><clipPath
       clipPathUnits="userSpaceOnUse"
       id="clipPath30"><path
         d="m 0.06,841.98 595.32,0 0,-841.92 -595.32,0 0,841.92 z"
         id="path32"
         inkscape:connector-curvature="0" /></clipPath><clipPath
       clipPathUnits="userSpaceOnUse"
       id="clipPath42"><path
         d="m 49.07,786.15 62.078,0 0,-116.365 -62.078,0 0,116.365 z"
         clip-rule="evenodd"
         id="path44"
         inkscape:connector-curvature="0" /></clipPath><clipPath
       clipPathUnits="userSpaceOnUse"
       id="clipPath48"><path
         d="M 0,841 595,841 595,0 0,0 0,841 z"
         id="path50"
         inkscape:connector-curvature="0" /></clipPath><clipPath
       clipPathUnits="userSpaceOnUse"
       id="clipPath54"><path
         d="m 0.06,841.98 595.32,0 0,-841.92 -595.32,0 0,841.92 z"
         id="path56"
         inkscape:connector-curvature="0" /></clipPath><clipPath
       clipPathUnits="userSpaceOnUse"
       id="clipPath92"><path
         d="M 0,841 595,841 595,0 0,0 0,841 z"
         id="path94"
         inkscape:connector-curvature="0" /></clipPath><clipPath
       clipPathUnits="userSpaceOnUse"
       id="clipPath98"><path
         d="m 0.06,841.98 595.32,0 0,-841.92 -595.32,0 0,841.92 z"
         id="path100"
         inkscape:connector-curvature="0" /></clipPath><clipPath
       clipPathUnits="userSpaceOnUse"
       id="clipPath116"><path
         d="M 0,841 595,841 595,0 0,0 0,841 z"
         id="path118"
         inkscape:connector-curvature="0" /></clipPath><clipPath
       clipPathUnits="userSpaceOnUse"
       id="clipPath122"><path
         d="m 0.06,841.98 595.32,0 0,-841.92 -595.32,0 0,841.92 z"
         id="path124"
         inkscape:connector-curvature="0" /></clipPath><clipPath
       clipPathUnits="userSpaceOnUse"
       id="clipPath134"><path
         d="M 0,841 595,841 595,0 0,0 0,841 z"
         id="path136"
         inkscape:connector-curvature="0" /></clipPath><clipPath
       clipPathUnits="userSpaceOnUse"
       id="clipPath140"><path
         d="m 0.06,841.98 595.32,0 0,-841.92 -595.32,0 0,841.92 z"
         id="path142"
         inkscape:connector-curvature="0" /></clipPath><clipPath
       clipPathUnits="userSpaceOnUse"
       id="clipPath182"><path
         d="M 0,841 595,841 595,0 0,0 0,841 z"
         id="path184"
         inkscape:connector-curvature="0" /></clipPath><clipPath
       clipPathUnits="userSpaceOnUse"
       id="clipPath188"><path
         d="m 0.06,841.98 595.32,0 0,-841.92 -595.32,0 0,841.92 z"
         id="path190"
         inkscape:connector-curvature="0" /></clipPath><clipPath
       clipPathUnits="userSpaceOnUse"
       id="clipPath204"><path
         d="M 0,841 595,841 595,0 0,0 0,841 z"
         id="path206"
         inkscape:connector-curvature="0" /></clipPath><clipPath
       clipPathUnits="userSpaceOnUse"
       id="clipPath210"><path
         d="m 0.06,841.98 595.32,0 0,-841.92 -595.32,0 0,841.92 z"
         id="path212"
         inkscape:connector-curvature="0" /></clipPath><clipPath
       clipPathUnits="userSpaceOnUse"
       id="clipPath222"><path
         d="M 0,841 595,841 595,0 0,0 0,841 z"
         id="path224"
         inkscape:connector-curvature="0" /></clipPath><clipPath
       clipPathUnits="userSpaceOnUse"
       id="clipPath228"><path
         d="m 0.06,841.98 595.32,0 0,-841.92 -595.32,0 0,841.92 z"
         id="path230"
         inkscape:connector-curvature="0" /></clipPath><clipPath
       clipPathUnits="userSpaceOnUse"
       id="clipPath240"><path
         d="M 0,841 595,841 595,0 0,0 0,841 z"
         id="path242"
         inkscape:connector-curvature="0" /></clipPath><clipPath
       clipPathUnits="userSpaceOnUse"
       id="clipPath246"><path
         d="m 0.06,841.98 595.32,0 0,-841.92 -595.32,0 0,841.92 z"
         id="path248"
         inkscape:connector-curvature="0" /></clipPath><clipPath
       clipPathUnits="userSpaceOnUse"
       id="clipPath260"><path
         d="M 0,841 595,841 595,0 0,0 0,841 z"
         id="path262"
         inkscape:connector-curvature="0" /></clipPath><clipPath
       clipPathUnits="userSpaceOnUse"
       id="clipPath266"><path
         d="m 0.06,841.98 595.32,0 0,-841.92 -595.32,0 0,841.92 z"
         id="path268"
         inkscape:connector-curvature="0" /></clipPath><clipPath
       clipPathUnits="userSpaceOnUse"
       id="clipPath278"><path
         d="M 0,841 595,841 595,0 0,0 0,841 z"
         id="path280"
         inkscape:connector-curvature="0" /></clipPath><clipPath
       clipPathUnits="userSpaceOnUse"
       id="clipPath284"><path
         d="m 0.06,841.98 595.32,0 0,-841.92 -595.32,0 0,841.92 z"
         id="path286"
         inkscape:connector-curvature="0" /></clipPath><clipPath
       clipPathUnits="userSpaceOnUse"
       id="clipPath296"><path
         d="M 0,841 595,841 595,0 0,0 0,841 z"
         id="path298"
         inkscape:connector-curvature="0" /></clipPath><clipPath
       clipPathUnits="userSpaceOnUse"
       id="clipPath302"><path
         d="m 0.06,841.98 595.32,0 0,-841.92 -595.32,0 0,841.92 z"
         id="path304"
         inkscape:connector-curvature="0" /></clipPath><clipPath
       clipPathUnits="userSpaceOnUse"
       id="clipPath316"><path
         d="M 0,841 595,841 595,0 0,0 0,841 z"
         id="path318"
         inkscape:connector-curvature="0" /></clipPath><clipPath
       clipPathUnits="userSpaceOnUse"
       id="clipPath322"><path
         d="m 0.06,841.98 595.32,0 0,-841.92 -595.32,0 0,841.92 z"
         id="path324"
         inkscape:connector-curvature="0" /></clipPath><clipPath
       clipPathUnits="userSpaceOnUse"
       id="clipPath334"><path
         d="M 0,841 595,841 595,0 0,0 0,841 z"
         id="path336"
         inkscape:connector-curvature="0" /></clipPath><clipPath
       clipPathUnits="userSpaceOnUse"
       id="clipPath340"><path
         d="m 0.06,841.98 595.32,0 0,-841.92 -595.32,0 0,841.92 z"
         id="path342"
         inkscape:connector-curvature="0" /></clipPath><clipPath
       clipPathUnits="userSpaceOnUse"
       id="clipPath354"><path
         d="M 0,841 595,841 595,0 0,0 0,841 z"
         id="path356"
         inkscape:connector-curvature="0" /></clipPath><clipPath
       clipPathUnits="userSpaceOnUse"
       id="clipPath360"><path
         d="m 0.06,841.98 595.32,0 0,-841.92 -595.32,0 0,841.92 z"
         id="path362"
         inkscape:connector-curvature="0" /></clipPath><clipPath
       clipPathUnits="userSpaceOnUse"
       id="clipPath372"><path
         d="M 0,841 595,841 595,0 0,0 0,841 z"
         id="path374"
         inkscape:connector-curvature="0" /></clipPath><clipPath
       clipPathUnits="userSpaceOnUse"
       id="clipPath378"><path
         d="m 0.06,841.98 595.32,0 0,-841.92 -595.32,0 0,841.92 z"
         id="path380"
         inkscape:connector-curvature="0" /></clipPath><clipPath
       clipPathUnits="userSpaceOnUse"
       id="clipPath390"><path
         d="M 0,841 595,841 595,0 0,0 0,841 z"
         id="path392"
         inkscape:connector-curvature="0" /></clipPath><clipPath
       clipPathUnits="userSpaceOnUse"
       id="clipPath396"><path
         d="m 0.06,841.98 595.32,0 0,-841.92 -595.32,0 0,841.92 z"
         id="path398"
         inkscape:connector-curvature="0" /></clipPath><clipPath
       clipPathUnits="userSpaceOnUse"
       id="clipPath408"><path
         d="M 0,841 595,841 595,0 0,0 0,841 z"
         id="path410"
         inkscape:connector-curvature="0" /></clipPath><clipPath
       clipPathUnits="userSpaceOnUse"
       id="clipPath414"><path
         d="m 0.06,841.98 595.32,0 0,-841.92 -595.32,0 0,841.92 z"
         id="path416"
         inkscape:connector-curvature="0" /></clipPath><clipPath
       clipPathUnits="userSpaceOnUse"
       id="clipPath430"><path
         d="M 0,841 595,841 595,0 0,0 0,841 z"
         id="path432"
         inkscape:connector-curvature="0" /></clipPath><clipPath
       clipPathUnits="userSpaceOnUse"
       id="clipPath436"><path
         d="m 0.06,841.98 595.32,0 0,-841.92 -595.32,0 0,841.92 z"
         id="path438"
         inkscape:connector-curvature="0" /></clipPath><clipPath
       clipPathUnits="userSpaceOnUse"
       id="clipPath448"><path
         d="M 0,841 595,841 595,0 0,0 0,841 z"
         id="path450"
         inkscape:connector-curvature="0" /></clipPath><clipPath
       clipPathUnits="userSpaceOnUse"
       id="clipPath454"><path
         d="m 0.06,841.98 595.32,0 0,-841.92 -595.32,0 0,841.92 z"
         id="path456"
         inkscape:connector-curvature="0" /></clipPath></defs><sodipodi:namedview
     pagecolor="#ffffff"
     bordercolor="#666666"
     borderopacity="1"
     objecttolerance="10"
     gridtolerance="10"
     guidetolerance="10"
     inkscape:pageopacity="0"
     inkscape:pageshadow="2"
     inkscape:window-width="1280"
     inkscape:window-height="666"
     id="namedview4"
     showgrid="false"
     inkscape:zoom="0.45154905"
     inkscape:cx="243.17536"
     inkscape:cy="-103.60104"
     inkscape:window-x="0"
     inkscape:window-y="0"
     inkscape:window-maximized="0"
     inkscape:current-layer="g10"
     fit-margin-top="2"
     fit-margin-left="2"
     fit-margin-bottom="2"
     fit-margin-right="2" /><g
     id="g10"
     inkscape:groupmode="layer"
     inkscape:label="hcaconf"
     transform="matrix(1.25,0,0,-1.25,-269.86384,806.5507)"><g
       id="g38"
       transform="translate(168.42007,-142.50944)"><g
         id="g40"
         clip-path="url(#clipPath42)"><g
           id="g46"
           clip-path="url(#clipPath48)"><g
             id="g52"
             clip-path="url(#clipPath54)"><path
               d="m 49.071,786.156 57.727,0 0,-112.217 -57.727,0 0,112.217 z"
               style="fill:#e51b24;fill-opacity:1;fill-rule:nonzero;stroke:none"
               id="path58"
               inkscape:connector-curvature="0" /><path
               d="m 66.852,762.604 0,-6.236 -6.306,0 0,-2.77 15.471,0 0,2.77 -6.857,0 0,6.236 6.857,0 0,2.77 -15.471,0 0,-2.77 6.306,0"
               style="fill:#ffffff;fill-opacity:1;fill-rule:nonzero;stroke:none"
               id="path60"
               inkscape:connector-curvature="0" /><path
               d="m 79.827,767.568 2.308,0 0,6.189 13.14,0 0,2.77 -15.448,0 0,-8.959"
               style="fill:#ffffff;fill-opacity:1;fill-rule:nonzero;stroke:none"
               id="path62"
               inkscape:connector-curvature="0" /><path
               d="m 79.827,762.604 15.448,0 0,2.77 -15.448,0 0,-2.77 z"
               style="fill:#ffffff;fill-opacity:1;fill-rule:nonzero;stroke:none"
               id="path64"
               inkscape:connector-curvature="0" /><path
               d="m 73.941,744.247 c 0,-0.905 -0.287,-1.685 -0.575,-2.308 -0.3,-0.626 -0.62,-1.076 -0.744,-1.27 l 1.963,-1.271 c 0.207,0.176 1.732,2.061 1.732,4.964 0,3.326 -1.925,5.31 -4.73,5.31 -2.891,0 -3.818,-2.118 -4.804,-4.271 -0.742,-1.62 -1.213,-2.817 -2.426,-2.817 -1.101,0 -1.847,1.096 -1.847,2.54 0,0.998 0.427,2.005 0.992,2.817 0.113,0.16 0.17,0.27 0.232,0.347 l -1.847,1.27 c -0.133,-0.131 -1.687,-1.756 -1.687,-4.618 0,-2.979 1.827,-5.08 4.458,-5.08 1.977,0 3.154,1.231 3.97,2.84 0.369,0.721 0.669,1.455 0.992,2.193 0.409,0.933 0.925,1.964 2.127,1.964 1.314,0 2.194,-0.895 2.194,-2.61"
               style="fill:#ffffff;fill-opacity:1;fill-rule:nonzero;stroke:none"
               id="path66"
               inkscape:connector-curvature="0" /><path
               d="m 60.546,733.164 15.47,0 0,2.772 -15.47,0 0,-2.772 z"
               style="fill:#ffffff;fill-opacity:1;fill-rule:nonzero;stroke:none"
               id="path68"
               inkscape:connector-curvature="0" /><path
               d="m 81.329,749.512 c 0.698,-0.699 1.796,-1.155 3.114,-1.155 2.198,0 3.091,1.53 3.375,2.655 0.235,-0.655 0.953,-2.147 3.252,-2.147 1.14,0 2.072,0.295 2.938,1.156 1.114,1.116 1.267,2.622 1.267,4.27 l 0,4.618 -15.448,0 0,-3.51 c 0,-2.445 0.016,-4.402 1.502,-5.887 z m 11.821,6.743 0,-1.156 c 0,-0.962 0.03,-2.338 -0.762,-3.048 -0.353,-0.315 -0.734,-0.461 -1.318,-0.461 -0.648,0 -1.243,0.128 -1.589,0.509 -0.676,0.731 -0.744,2.014 -0.744,3.116 l 0,1.04 4.413,0 z m -6.556,0 0,-1.086 c 0,-0.685 0.038,-1.371 -0.047,-1.963 -0.089,-0.589 -0.259,-1.113 -0.646,-1.499 -0.447,-0.447 -1.011,-0.578 -1.523,-0.578 -0.512,0 -1.055,0.197 -1.436,0.578 -0.69,0.69 -0.876,1.468 -0.876,3.046 l 0,1.502 4.528,0"
               style="fill:#ffffff;fill-opacity:1;fill-rule:nonzero;stroke:none"
               id="path70"
               inkscape:connector-curvature="0" /><path
               d="m 76.017,722.96 0,2.769 -13.207,0 0,4.317 -2.264,0 0,-11.43 2.264,0 0,4.344 13.207,0"
               style="fill:#ffffff;fill-opacity:1;fill-rule:nonzero;stroke:none"
               id="path72"
               inkscape:connector-curvature="0" /><path
               d="m 60.546,712.728 15.47,0 0,2.775 -15.47,0 0,-2.775 z"
               style="fill:#ffffff;fill-opacity:1;fill-rule:nonzero;stroke:none"
               id="path74"
               inkscape:connector-curvature="0" /><path
               d="m 83.405,727.509 0,-5.729 -1.315,-0.46 c -0.531,-0.187 -1.393,-0.399 -1.801,-0.808 -0.315,-0.321 -0.462,-0.76 -0.462,-1.686 l 0,-1.158 15.448,5.519 0,2.819 -15.448,5.518 0,-2.84 3.578,-1.175 z m 8.752,-2.819 -6.557,-2.17 0,4.272 6.557,-2.102"
               style="fill:#ffffff;fill-opacity:1;fill-rule:nonzero;stroke:none"
               id="path76"
               inkscape:connector-curvature="0" /><path
               d="m 69.736,699.986 0,0.46 c 0,0.638 0.016,1.748 0.626,2.356 0.81,0.808 4.593,2.331 5.147,2.885 0.406,0.404 0.508,0.868 0.508,1.96 l 0,1.574 c -1.082,-0.659 -5.91,-3.187 -6.511,-3.788 -0.445,-0.446 -0.577,-0.831 -0.644,-1.293 -0.176,0.876 -0.533,1.547 -1.109,2.124 -0.725,0.723 -1.684,1.04 -2.728,1.04 -1.32,0 -2.395,-0.528 -3.138,-1.27 -1.016,-1.013 -1.221,-2.226 -1.27,-3.578 -0.017,-0.467 -0.047,-0.992 -0.047,-1.502 l 0,-3.742 15.447,0 0,2.774 -6.281,0 z m -6.972,0 0,1.153 c 0,0.601 -0.024,1.151 0.046,1.618 0.069,0.458 0.234,0.857 0.577,1.199 0.285,0.283 0.942,0.578 1.638,0.578 0.63,0 1.263,-0.27 1.688,-0.693 0.692,-0.694 0.808,-1.65 0.808,-2.935 l 0,-0.92 -4.757,0"
               style="fill:#ffffff;fill-opacity:1;fill-rule:nonzero;stroke:none"
               id="path78"
               inkscape:connector-curvature="0" /><path
               d="m 71.398,694.026 c -2.196,0 -3.089,-1.525 -3.368,-2.654 -0.236,0.658 -0.956,2.147 -3.258,2.147 -1.133,0 -2.07,-0.295 -2.93,-1.153 -1.12,-1.121 -1.272,-2.623 -1.272,-4.272 l 0,-4.62 15.447,0 0,3.51 c 0,2.445 -0.016,4.404 -1.5,5.889 -0.697,0.701 -1.798,1.153 -3.119,1.153 z m -8.703,-7.894 0,1.152 c 0,0.964 -0.029,2.338 0.762,3.045 0.35,0.32 0.734,0.469 1.315,0.469 0.654,0 1.245,-0.131 1.595,-0.512 0.672,-0.73 0.738,-2.014 0.738,-3.119 l 0,-1.035 -4.41,0 z M 72.9,690.68 c 0.691,-0.691 0.881,-1.47 0.881,-3.049 l 0,-1.499 -4.527,0 0,1.085 c 0,0.681 -0.041,1.369 0.043,1.964 0.089,0.586 0.259,1.106 0.65,1.499 0.443,0.447 1.008,0.576 1.522,0.576 0.512,0 1.049,-0.199 1.431,-0.576"
               style="fill:#ffffff;fill-opacity:1;fill-rule:nonzero;stroke:none"
               id="path80"
               inkscape:connector-curvature="0" /><path
               d="m 79.827,699.916 0,-2.704 6.118,0 9.33,-4.8 0,1.733 c 0,1.037 -0.403,1.188 -1.384,1.682 l -5.336,2.702 6.72,3.418 0,2.816 -9.33,-4.847 -6.118,0"
               style="fill:#ffffff;fill-opacity:1;fill-rule:nonzero;stroke:none"
               id="path82"
               inkscape:connector-curvature="0" /><path
               d="m 86.106,712.8 0,-0.463 c 0,-0.635 -0.015,-1.746 -0.62,-2.357 -0.807,-0.808 -4.595,-2.328 -5.152,-2.884 -0.402,-0.405 -0.507,-0.865 -0.507,-1.963 l 0,-1.571 c 1.08,0.661 5.912,3.188 6.513,3.789 0.443,0.444 0.575,0.831 0.647,1.292 0.17,-0.875 0.527,-1.547 1.109,-2.123 0.72,-0.725 1.681,-1.04 2.721,-1.04 1.324,0 2.397,0.526 3.14,1.27 1.016,1.016 1.221,2.228 1.27,3.578 0.019,0.468 0.048,0.99 0.048,1.502 l 0,3.74 -15.448,0 0,-2.77 6.279,0 z m 6.977,0 0,-1.156 c 0,-0.603 0.019,-1.15 -0.045,-1.616 -0.075,-0.46 -0.236,-0.859 -0.584,-1.199 -0.282,-0.287 -0.938,-0.578 -1.637,-0.578 -0.628,0 -1.26,0.267 -1.687,0.694 -0.689,0.689 -0.809,1.649 -0.809,2.93 l 0,0.925 4.762,0"
               style="fill:#ffffff;fill-opacity:1;fill-rule:nonzero;stroke:none"
               id="path84"
               inkscape:connector-curvature="0" /><path
               d="m 86.106,742.238 0,-0.461 c 0,-0.638 -0.015,-1.748 -0.62,-2.355 -0.807,-0.807 -4.595,-2.33 -5.152,-2.886 -0.402,-0.405 -0.507,-0.865 -0.507,-1.964 l 0,-1.567 c 1.08,0.658 5.912,3.184 6.513,3.783 0.443,0.448 0.575,0.831 0.647,1.295 0.17,-0.876 0.527,-1.55 1.109,-2.126 0.72,-0.722 1.681,-1.037 2.721,-1.037 1.324,0 2.397,0.525 3.14,1.269 1.016,1.015 1.221,2.226 1.27,3.579 0.019,0.466 0.048,0.991 0.048,1.5 l 0,3.742 -15.448,0 0,-2.772 6.279,0 z m 6.977,0 0,-1.154 c 0,-0.603 0.019,-1.152 -0.045,-1.617 -0.075,-0.46 -0.236,-0.855 -0.584,-1.2 -0.282,-0.284 -0.938,-0.578 -1.637,-0.578 -0.628,0 -1.26,0.272 -1.687,0.693 -0.689,0.69 -0.809,1.649 -0.809,2.934 l 0,0.922 4.762,0"
               style="fill:#ffffff;fill-opacity:1;fill-rule:nonzero;stroke:none"
               id="path86"
               inkscape:connector-curvature="0" /></g></g></g></g></g></svg>