<?xml version="1.0" standalone="no"?>
<!DOCTYPE svg PUBLIC "-//W3C//DTD SVG 20010904//EN"
 "http://www.w3.org/TR/2001/REC-SVG-20010904/DTD/svg10.dtd">
<svg version="1.0" xmlns="http://www.w3.org/2000/svg"
 width="1200.000000pt" height="1200.000000pt" viewBox="0 0 1200.000000 1200.000000"
 preserveAspectRatio="xMidYMid meet">

<g transform="translate(0.000000,1200.000000) scale(0.100000,-0.100000)"
fill="#000000" stroke="none">
<path d="M5971 9272 c-19 -42 -69 -144 -112 -227 -127 -246 -135 -308 -57
-463 24 -47 45 -90 47 -95 2 -5 -22 9 -52 32 -31 24 -79 51 -108 62 -65 25
-199 35 -255 20 -93 -25 -173 -115 -195 -220 -24 -115 35 -284 132 -381 28
-28 54 -50 59 -50 6 0 10 17 10 38 0 51 22 123 50 163 52 71 225 109 288 62
86 -64 85 -201 -2 -345 -19 -32 -34 -58 -33 -58 1 0 34 7 72 15 90 19 272 19
371 0 43 -8 79 -13 82 -11 2 3 -8 22 -22 42 -65 96 -85 250 -40 311 40 53 68
66 138 65 73 -1 128 -21 169 -60 41 -38 57 -74 70 -153 l12 -69 39 32 c82 68
156 223 156 327 0 108 -55 210 -142 264 -110 68 -317 37 -433 -64 -19 -17 -35
-29 -35 -26 0 3 19 45 42 93 34 71 43 102 46 156 6 91 -11 138 -112 328 -45
85 -96 185 -112 222 -16 37 -31 68 -34 68 -3 0 -20 -35 -39 -78z"/>
<path d="M5860 7640 c-390 -32 -758 -197 -1040 -467 -338 -324 -520 -744 -520
-1203 0 -510 228 -982 630 -1303 480 -384 1133 -480 1708 -251 l114 45 266
-96 c423 -154 619 -221 737 -251 100 -25 126 -28 290 -28 162 -1 188 1 255 22
228 72 394 234 455 445 49 171 -6 361 -149 503 -114 114 -228 160 -375 151
-207 -12 -366 -116 -379 -247 -7 -79 5 -117 52 -165 123 -122 325 -40 326 133
0 82 -50 149 -135 181 l-48 18 39 14 c61 20 170 16 236 -10 72 -28 150 -100
179 -166 30 -69 36 -174 14 -250 -53 -184 -174 -307 -336 -344 -63 -15 -185
-13 -271 3 -56 11 -482 162 -801 285 l-29 11 53 48 c29 26 81 76 115 112 213
222 357 499 424 815 27 129 37 376 21 511 -62 509 -349 959 -786 1231 -304
190 -686 282 -1045 253z m322 -131 c206 -28 427 -142 601 -308 245 -234 401
-539 468 -918 30 -171 30 -440 0 -616 -36 -205 -112 -423 -202 -580 -54 -93
-156 -231 -211 -285 l-44 -43 -199 71 c-326 116 -529 168 -737 190 -161 17
-323 -7 -438 -65 -56 -29 -142 -104 -171 -151 -11 -19 -25 -34 -30 -32 -18 6
-125 138 -181 223 -434 654 -364 1608 156 2153 281 294 610 414 988 361z
m-328 -2714 c47 -8 130 -29 184 -46 96 -31 460 -175 475 -189 4 -4 -28 -23
-72 -43 -365 -167 -803 -102 -1125 166 -44 38 -47 42 -30 54 24 17 119 53 169
63 70 14 307 11 399 -5z"/>
<path d="M2454 7503 c11 -40 616 -2462 616 -2470 0 -4 11 17 23 47 80 193 246
306 499 340 204 27 419 -49 570 -203 32 -32 58 -53 58 -45 0 24 -38 189 -65
282 -76 260 -191 443 -321 507 -41 20 -64 24 -144 24 -89 0 -100 -2 -173 -37
-102 -49 -209 -131 -302 -230 -41 -45 -75 -79 -75 -76 0 3 14 35 30 72 17 37
42 109 56 160 125 473 -60 975 -532 1438 -90 88 -229 208 -241 208 -2 0 -2 -8
1 -17z"/>
<path d="M9435 7473 c-96 -75 -281 -260 -368 -368 -163 -202 -277 -411 -334
-610 -74 -262 -53 -560 56 -800 l28 -60 -106 106 c-354 355 -647 332 -831 -64
-59 -127 -115 -313 -145 -481 l-7 -40 80 76 c160 150 352 215 554 188 171 -22
305 -85 400 -187 46 -51 107 -157 109 -190 0 -16 1 -16 10 2 11 26 621 2467
616 2471 -1 2 -30 -18 -62 -43z"/>
<path d="M3640 5229 c-113 -16 -198 -61 -287 -151 -222 -227 -217 -544 12
-773 193 -193 489 -249 850 -161 88 22 428 135 677 226 l88 32 -78 55 c-42 30
-105 80 -139 110 l-62 54 -290 -105 c-364 -132 -460 -152 -607 -125 -178 32
-310 165 -360 361 -42 164 26 320 173 393 52 26 68 30 153 30 63 0 103 -5 120
-14 24 -14 24 -14 -22 -28 -109 -31 -165 -148 -123 -251 49 -116 186 -158 287
-86 107 75 109 223 6 321 -85 81 -260 130 -398 112z"/>
<path d="M3652 3949 c-111 -19 -211 -86 -228 -154 -24 -96 59 -201 201 -254
68 -25 196 -43 265 -36 30 3 177 14 325 25 477 35 1074 79 1280 95 124 10 321
16 520 16 277 0 392 -6 860 -41 297 -22 632 -47 745 -55 113 -9 292 -22 399
-30 196 -15 286 -11 371 17 143 45 243 158 226 253 -15 77 -112 145 -236 165
-82 12 -4650 12 -4728 -1z"/>
</g>
</svg>
